<svg width="14" height="22" viewBox="0 0 14 22" fill="none" xmlns="http://www.w3.org/2000/svg">
<path d="M8.82238 22H5.15447C4.54182 22 4.04344 21.5213 4.04344 20.9328V12.9863H1.90351C1.29085 12.9863 0.79248 12.5074 0.79248 11.9191V8.51402C0.79248 7.92555 1.29085 7.44685 1.90351 7.44685H4.04344V5.7417C4.04344 4.05098 4.59616 2.61253 5.64166 1.58212C6.69188 0.547012 8.15957 0 9.88605 0L12.6834 0.00436399C13.295 0.00537109 13.7925 0.48407 13.7925 1.07153V4.23309C13.7925 4.82156 13.2943 5.30026 12.6818 5.30026L10.7984 5.30093C10.224 5.30093 10.0777 5.41154 10.0465 5.44545C9.99492 5.50168 9.93358 5.66063 9.93358 6.09955V7.44669H12.5403C12.7365 7.44669 12.9266 7.49318 13.09 7.5808C13.4425 7.76996 13.6616 8.12764 13.6616 8.51419L13.6602 11.9193C13.6602 12.5074 13.1618 12.9861 12.5492 12.9861H9.93358V20.9328C9.93358 21.5213 9.43503 22 8.82238 22ZM5.38618 20.7103H8.59066V12.4089C8.59066 12.016 8.92355 11.6964 9.33246 11.6964H12.3175L12.3187 8.73659H9.33228C8.92338 8.73659 8.59066 8.41701 8.59066 8.02408V6.09955C8.59066 5.59567 8.64396 5.02264 9.03993 4.59195C9.51839 4.07129 10.2724 4.0112 10.798 4.0112L12.4497 4.01053V1.29376L9.885 1.28973C7.1104 1.28973 5.38618 2.99573 5.38618 5.7417V8.02408C5.38618 8.41684 5.05347 8.73659 4.64457 8.73659H2.13522V11.6964H4.64457C5.05347 11.6964 5.38618 12.016 5.38618 12.4089V20.7103Z" fill="white"/>
</svg>
