<svg width="27" height="25" viewBox="0 0 27 25" fill="none" xmlns="http://www.w3.org/2000/svg">
<path d="M10.4127 23.5149C11.0047 23.5149 11.4846 23.035 11.4846 22.443C11.4846 21.851 11.0047 21.3711 10.4127 21.3711C9.82073 21.3711 9.34082 21.851 9.34082 22.443C9.34082 23.035 9.82073 23.5149 10.4127 23.5149Z" stroke="white" stroke-width="2" stroke-linecap="round" stroke-linejoin="round"/>
<path d="M22.2037 23.5149C22.7957 23.5149 23.2756 23.035 23.2756 22.443C23.2756 21.851 22.7957 21.3711 22.2037 21.3711C21.6117 21.3711 21.1318 21.851 21.1318 22.443C21.1318 23.035 21.6117 23.5149 22.2037 23.5149Z" stroke="white" stroke-width="2" stroke-linecap="round" stroke-linejoin="round"/>
<path d="M1.8374 1.00488H6.12502L8.99772 15.3577C9.09574 15.8512 9.36422 16.2945 9.75615 16.61C10.1481 16.9255 10.6385 17.0931 11.1415 17.0834H21.5604C22.0635 17.0931 22.5539 16.9255 22.9458 16.61C23.3378 16.2945 23.6062 15.8512 23.7043 15.3577L25.4193 6.3644H7.19692" stroke="white" stroke-width="2" stroke-linecap="round" stroke-linejoin="round"/>
</svg>
