<svg width="28" height="25" viewBox="0 0 28 25" fill="none" xmlns="http://www.w3.org/2000/svg">
<path d="M24.8287 2.99093C24.1978 2.35975 23.4487 1.85905 22.6243 1.51744C21.7998 1.17583 20.9161 1 20.0237 1C19.1313 1 18.2476 1.17583 17.4232 1.51744C16.5987 1.85905 15.8497 2.35975 15.2188 2.99093L13.9095 4.30025L12.6001 2.99093C11.3258 1.71658 9.59741 1.00066 7.79521 1.00066C5.99301 1.00066 4.26462 1.71658 2.99027 2.99093C1.71592 4.26528 1 5.99367 1 7.79587C1 9.59807 1.71592 11.3265 2.99027 12.6008L4.29959 13.9101L13.9095 23.52L23.5193 13.9101L24.8287 12.6008C25.4598 11.9699 25.9605 11.2209 26.3021 10.3964C26.6438 9.57196 26.8196 8.68829 26.8196 7.79587C26.8196 6.90345 26.6438 6.01978 26.3021 5.19533C25.9605 4.37088 25.4598 3.62182 24.8287 2.99093Z" stroke="white" stroke-width="2" stroke-linecap="round" stroke-linejoin="round"/>
</svg>
