<svg width="23" height="22" viewBox="0 0 23 22" fill="none" xmlns="http://www.w3.org/2000/svg">
<g clip-path="url(#clip0_250_1660)">
<path d="M15.9175 0H7.66748C3.87111 0 0.79248 3.07863 0.79248 6.875V15.125C0.79248 18.9214 3.87111 22 7.66748 22H15.9175C19.7139 22 22.7925 18.9214 22.7925 15.125V6.875C22.7925 3.07863 19.7139 0 15.9175 0ZM20.73 15.125C20.73 17.7787 18.5712 19.9375 15.9175 19.9375H7.66748C5.01373 19.9375 2.85498 17.7787 2.85498 15.125V6.875C2.85498 4.22125 5.01373 2.0625 7.66748 2.0625H15.9175C18.5712 2.0625 20.73 4.22125 20.73 6.875V15.125Z" fill="white"/>
<path d="M11.7925 5.5C8.75511 5.5 6.29248 7.96262 6.29248 11C6.29248 14.0374 8.75511 16.5 11.7925 16.5C14.8299 16.5 17.2925 14.0374 17.2925 11C17.2925 7.96262 14.8299 5.5 11.7925 5.5ZM11.7925 14.4375C9.89773 14.4375 8.35498 12.8948 8.35498 11C8.35498 9.10388 9.89773 7.5625 11.7925 7.5625C13.6872 7.5625 15.23 9.10388 15.23 11C15.23 12.8948 13.6872 14.4375 11.7925 14.4375Z" fill="white"/>
<path d="M17.705 5.82024C18.1098 5.82024 18.4379 5.49212 18.4379 5.08737C18.4379 4.68261 18.1098 4.35449 17.705 4.35449C17.3003 4.35449 16.9722 4.68261 16.9722 5.08737C16.9722 5.49212 17.3003 5.82024 17.705 5.82024Z" fill="white"/>
</g>
<defs>
<clipPath id="clip0_250_1660">
<rect width="22" height="22" fill="white" transform="translate(0.79248)"/>
</clipPath>
</defs>
</svg>
