<svg width="30" height="22" viewBox="0 0 30 22" fill="none" xmlns="http://www.w3.org/2000/svg">
<path d="M15.2925 22C11.6025 22 8.36419 21.7658 6.2973 21.5694C3.68076 21.3207 1.59614 19.3831 1.22779 16.8576C0.647376 12.8575 0.647376 9.14249 1.22779 5.14234C1.59614 2.6169 3.68076 0.679305 6.2973 0.43065C8.36413 0.23419 11.6025 0 15.2925 0C18.9825 0 22.2208 0.23419 24.2877 0.43065C26.9042 0.679305 28.9888 2.6169 29.3572 5.14239C29.9376 9.14248 29.9376 12.8575 29.3572 16.8577C28.9888 19.3831 26.9042 21.3207 24.2877 21.5694C22.2208 21.7658 18.9825 22 15.2925 22ZM15.2925 2.2C11.694 2.2 8.53468 2.42847 6.51804 2.62026C4.9453 2.76975 3.69242 3.93371 3.47118 5.45083C3.1968 7.33205 3.05769 9.19903 3.05769 11.0001C3.05769 12.8011 3.1968 14.668 3.47118 16.5492C3.69242 18.0664 4.9453 19.2304 6.51804 19.3799C8.53474 19.5716 11.694 19.8001 15.2925 19.8001C18.891 19.8001 22.0503 19.5716 24.0669 19.3799C25.6397 19.2304 26.8925 18.0664 27.1138 16.5493C27.3882 14.6681 27.5273 12.8011 27.5273 11.0001C27.5273 9.19903 27.3882 7.33211 27.1138 5.45089C26.8925 3.93371 25.6397 2.76975 24.0669 2.62026C22.0503 2.42847 18.891 2.2 15.2925 2.2ZM13.823 16.2138C12.3084 16.2338 10.9522 14.9585 10.9876 13.4703V8.50218C10.9876 7.50723 11.5214 6.61848 12.4154 6.1248C13.3165 5.62716 14.3864 5.63739 15.277 6.15186L19.5769 8.63593C21.4066 9.65525 21.4061 12.3175 19.5769 13.3365L15.277 15.8206C14.8235 16.0826 14.3234 16.2138 13.823 16.2138ZM13.8257 7.96142C13.6935 7.96142 13.5884 8.00805 13.5355 8.03726C13.4301 8.09545 13.2534 8.23317 13.2534 8.50218V13.4703C13.2534 13.7394 13.4301 13.8771 13.5355 13.9352C13.6237 13.984 13.857 14.081 14.1186 13.9298L18.4185 11.4458C18.7846 11.2336 18.7851 10.7393 18.4185 10.5267L14.1186 8.04259C14.0139 7.98215 13.9137 7.96142 13.8257 7.96142Z" fill="white"/>
</svg>
